<svg xmlns="http://www.w3.org/2000/svg" viewBox="0 0 220 320"><g fill="#fafafa" stroke="#32383d" stroke-width="1.5"><path d="M76 22Q110 12 144 22L149 47Q155 75 153 111L150 254Q147 280 134 290H86Q73 280 70 254L67 111Q65 75 71 47Z"/><path d="M81 69Q110 54 139 69L132 105H88Z" fill="#b6bec3"/><path d="m88 110 44 0 4 100H84Z" fill="#e3e7e9"/><path d="m84 216 52 0 5 32Q110 261 79 248Z" fill="#b6bec3"/><path d="m73 72-7 0v34h9M147 72h7v34h-9 M74 213h-8v36h8 M146 213h8v36h-8" fill="#2f3438"/><path d="M85 29h50 M78 38h64 M84 274h52 M87 282h46"/><path d="M74 110v99M146 110v99 M76 112l8 11 M144 112l-8 11 M75 207l9-11 M145 207l-9-11"/><path d="M79 46h15 M126 46h15 M77 263h18 M125 263h18" stroke="#e82e3b" stroke-width="3"/><path d="M75 7Q110 2 145 7l2 6H73Z M76 302Q110 309 144 302l3 7H73Z"/><path d="M30 63h16l5 27v39l-5 19H25l-4-16V92Z M174 63h16l9 29v40l-4 16h-21l-5-19V90Z M25 166h21l5 21v63l-6 24H29l-8-30v-61Z M174 166h21l4 17v61l-8 30h-16l-6-24v-63Z"/><path d="M27 86h18v44H26Z M176 86h18l1 44h-19Z M27 190h18v58H27Z M176 190h18v58h-18Z" fill="#e4e8eb"/></g></svg>
